<svg width="1024" height="302" viewBox="0 0 1024 302" fill="none" xmlns="http://www.w3.org/2000/svg">
<path d="M60.4018 241.6H0V302H60.4018V241.6Z" fill="#FE7B17"/>
<path d="M120.804 241.6H60.402V302H120.804V241.6Z" fill="#FE7B17"/>
<path d="M241.607 181.2H181.206V241.6H241.607V181.2Z" fill="#FE7B17"/>
<path d="M120.804 120.8H60.402V181.2H120.804V120.8Z" fill="#FE7B17"/>
<path d="M241.607 120.8H181.206V181.2H241.607V120.8Z" fill="#FE7B17"/>
<path d="M120.804 60.4001H60.402V120.8H120.804V60.4001Z" fill="#FE7B17"/>
<path d="M60.4018 241.6H0V302H60.4018V241.6Z" fill="#FE7B17"/>
<path d="M120.804 241.6H60.4019V302H120.804V241.6Z" fill="#FE7B17"/>
<path d="M181.206 0H120.804V60.4H181.206V0Z" fill="#FE7B17"/>
<path d="M241.607 0H181.206V60.4H241.607V0Z" fill="#FE7B17"/>
<path d="M181.206 181.2H120.804V241.6H181.206V181.2Z" fill="#FE7B17"/>
<path d="M181.206 120.8H120.804V181.2H181.206V120.8Z" fill="#FE7B17"/>
<path d="M241.607 181.2H181.206V241.6H241.607V181.2Z" fill="#FE7B17"/>
<path d="M241.607 120.8H181.206V181.2H241.607V120.8Z" fill="#FE7B17"/>
<path d="M60.4018 120.8H0V181.2H60.4018V120.8Z" fill="#FE7B17"/>
<path d="M60.4018 60.4001H0V120.8H60.4018V60.4001Z" fill="#FE7B17"/>
<path d="M120.804 120.8H60.402V181.2H120.804V120.8Z" fill="#FE7B17"/>
<path d="M120.804 60.4001H60.4019V120.8H120.804V60.4001Z" fill="#FE7B17"/>
<path d="M332.21 178.863H370.241C372.921 201.91 386.039 211.035 413.368 211.035C433.186 211.035 450.588 204.064 450.588 186.363C450.588 167.604 432.375 163.844 403.176 157.138C368.901 149.355 337.552 140.249 337.552 100.313C337.552 62.512 368.354 42.9407 410.934 42.9407C453.513 42.9407 481.919 64.1177 484.863 102.731H447.644C445.492 83.4246 430.506 73.7711 410.688 73.7711C389.795 73.7711 376.13 82.6122 376.13 96.2895C376.13 111.837 389.531 116.39 417.917 122.567C457.288 131.144 489.431 140.533 489.431 181.81C489.431 220.688 458.1 242.394 414.973 242.394C363.013 242.394 333.55 219.347 332.21 178.863Z" fill="#1E1E1E"/>
<path d="M596.559 222.029H595.748C586.367 234.63 575.666 241.865 556.376 241.865C525.838 241.865 508.701 222.294 508.701 192.276V100.597H544.863V186.117C544.863 202.194 552.092 211.054 567.625 211.054C584.763 211.054 595.219 198.189 595.219 179.959V100.616H631.646V238.144H596.559V222.029Z" fill="#1E1E1E"/>
<path d="M690.289 122.567H691.101C699.406 107.02 708.786 98.972 724.848 98.972C728.868 98.972 731.284 99.2365 733.417 100.049V131.956H732.605C708.767 129.538 691.63 142.138 691.63 171.099V238.125H655.203V100.578H690.289V122.567Z" fill="#1E1E1E"/>
<path d="M741.454 242.13H777.617C780.561 250.706 788.337 257.413 805.211 257.413C825.84 257.413 835.749 247.495 835.749 228.736V213.717H834.937C826.897 222.823 816.46 229.794 799.039 229.794C768.501 229.794 738.51 205.67 738.51 164.109C738.51 122.548 763.16 96.8184 797.963 96.8184C815.101 96.8184 827.69 103.525 835.994 115.048H836.523V100.578H871.61V227.64C871.61 246.947 865.457 260.076 855.265 269.465C843.752 280.195 826.067 285.013 805.72 285.013C768.218 285.013 745.191 268.936 741.436 242.111L741.454 242.13ZM837.599 163.315C837.599 143.215 826.878 126.062 804.928 126.062C786.45 126.062 774.125 140.533 774.125 163.599C774.125 186.665 786.45 200.588 805.192 200.588C828.218 200.588 837.599 183.699 837.599 163.315Z" fill="#1E1E1E"/>
<path d="M888.485 169.21C888.485 128.461 916.078 96.8373 956.242 96.8373C1000.43 96.8373 1024 130.615 1024 179.675H924.364C927.044 200.852 938.822 213.982 959.451 213.982C973.644 213.982 981.949 207.54 985.969 197.093H1021.87C1016.77 221.481 995.085 242.13 959.734 242.13C914.21 242.13 888.485 210.222 888.485 169.21ZM985.969 154.474C984.893 137.057 973.38 124.985 956.771 124.985C937.482 124.985 928.12 136.509 924.893 154.474H985.969Z" fill="#1E1E1E"/>
</svg>
